# xmcd CD database file
#
# Track frame offsets:
#	150
#	13363
#	27455
#	39863
#	51440
#	63994
#	76590
#	89635
#	104061
#	118112
#	137000
#	154765
#	167948
#	182104
#	192655
#	211023
#	227570
#
# Disc length: 3272 seconds
#
# Revision: 0
# Processed by: cddbd v1.5.2PL0 Copyright (c) Steve Scherf et al.
# Submitted via: CDex 1.70beta3
#
DISCID=ee0cc611
DTITLE=Albert King - The Definitive Albert King On Stax [CD1)
DYEAR=2011
DGENRE=Blues
TTITLE0=Don't Throw Your Love On Me So Strong
TTITLE1=Laundromat Blues
TTITLE2=Oh, Pretty Woman
TTITLE3=Crosscut Saw
TTITLE4=Born Under A Bad Sign
TTITLE5=Cold Feet
TTITLE6=(I Love) Lucy
TTITLE7=Blues Power (Live)
TTITLE8=Killing Floor
TTITLE9=The Sky Is Crying
TTITLE10=Drowning On Dry Land
TTITLE11=Tupelo (Pt.1)
TTITLE12=Water
TTITLE13=Wrapped Up In Love Again
TTITLE14=Hound Dog
TTITLE15=Can't You See What You're Doing To Me
TTITLE16=Honky Tonk Woman
EXTD=YEAR: 2011
EXTT0=
EXTT1=
EXTT2=
EXTT3=
EXTT4=
EXTT5=
EXTT6=
EXTT7=
EXTT8=
EXTT9=
EXTT10=
EXTT11=
EXTT12=
EXTT13=
EXTT14=
EXTT15=
EXTT16=
PLAYORDER=
